<svg xmlns="http://www.w3.org/2000/svg" viewBox="0 0 1600 600" preserveAspectRatio="xMidYMid slice" aria-hidden="true">
  <g fill="none" stroke="#3D4435" stroke-width="1.25" stroke-linecap="round" stroke-linejoin="round">
    <path d="M0 470 L120 455 L220 460 L310 448 L420 455 L520 442 L640 460 L760 438 L880 452 L1000 430 L1120 446 L1240 420 L1360 438 L1480 416 L1600 430" />
    <path d="M0 400 L140 382 L260 392 L380 368 L500 386 L620 354 L740 378 L860 340 L980 366 L1100 330 L1220 358 L1340 324 L1460 350 L1600 320" />
    <path d="M0 330 L160 296 L300 316 L440 276 L580 304 L720 256 L860 294 L1000 240 L1140 284 L1280 224 L1420 274 L1560 210 L1600 220" />
    <path d="M0 260 L180 210 L340 240 L500 180 L660 220 L820 154 L980 208 L1140 136 L1300 196 L1460 114 L1600 180" />
    <path d="M0 200 L200 130 L400 168 L600 96 L800 148 L1000 68 L1200 140 L1400 56 L1600 128" />
  </g>
</svg>
